# xmcd CD database file
#
# Track frame offsets:
#	150
#	15133
#	29230
#	44401
#	57676
#	71122
#	84661
#	98390
#	112200
#	125805
#	139629
#	152874
#	166954
#	181318
#	195820
#	210840
#	225070
#	240736
#	256076
#	269079
#	283130
#	297081
#	310352
#	324295
#	338708
#
# Disc length: 4709 seconds
#
# Revision: 0
# Processed by: cddbd v1.5.2PL0 Copyright (c) Steve Scherf et al.
# Submitted via: Fey Extractor 
#
DISCID=65126319
DTITLE=Lonnie Johnson - A Life in Music2 - Lonnie Johnson - A Life in Music B 1928 - 1932
DYEAR=2009
DGENRE=Blues
TTITLE0=Lonnie Johnson - A Life in Music2 - The Mooche
TTITLE1=Lonnie Johnson - A Life in Music2 - Move Over
TTITLE2=Lonnie Johnson - A Life in Music2 - Hot and Bothered
TTITLE3=Lonnie Johnson - A Life in Music2 - Careless Love
TTITLE4=Lonnie Johnson - A Life in Music2 - Paducah
TTITLE5=Lonnie Johnson - A Life in Music2 - Star Dust
TTITLE6=Lonnie Johnson - A Life in Music2 - Have to Change Key to Play these Blues
TTITLE7=Lonnie Johnson - A Life in Music2 - Jet Black Blues
TTITLE8=Lonnie Johnson - A Life in Music2 - Blue Blood Blues
TTITLE9=Lonnie Johnson - A Life in Music2 - Sitting on top of the World
TTITLE10=Lonnie Johnson - A Life in Music2 - Kansas City Man Blues
TTITLE11=Lonnie Johnson - A Life in Music2 - A Handful of Riffs
TTITLE12=Lonnie Johnson - A Life in Music2 - She's Makin' Whoopee in Hel Tonight
TTITLE13=Lonnie Johnson - A Life in Music2 - Another Woman Booked out and Bound to Go
TTITLE14=Lonnie Johnson - A Life in Music2 - Wipe it Off
TTITLE15=Lonnie Johnson - A Life in Music2 - The Dirty Dozen
TTITLE16=Lonnie Johnson - A Life in Music2 - Deep Sea Blues
TTITLE17=Lonnie Johnson - A Life in Music2 - Got the Blues for Murder Only
TTITLE18=Lonnie Johnson - A Life in Music2 - Just a Roamin' Man
TTITLE19=Lonnie Johnson - A Life in Music2 - Jelly Killed old Sam
TTITLE20=Lonnie Johnson - A Life in Music2 - The Faults of all Women and Men
TTITLE21=Lonnie Johnson - A Life in Music2 - The Best Jockey in Town
TTITLE22=Lonnie Johnson - A Life in Music2 - Uncle Ned Don't Lose Your Head
TTITLE23=Lonnie Johnson - A Life in Music2 - I'm Nuts About That Gal
TTITLE24=Lonnie Johnson - A Life in Music2 - Racketeer's Blues
EXTD=YEAR: 2009
EXTT0=
EXTT1=
EXTT2=
EXTT3=
EXTT4=
EXTT5=
EXTT6=
EXTT7=
EXTT8=
EXTT9=
EXTT10=
EXTT11=
EXTT12=
EXTT13=
EXTT14=
EXTT15=
EXTT16=
EXTT17=
EXTT18=
EXTT19=
EXTT20=
EXTT21=
EXTT22=
EXTT23=
EXTT24=
PLAYORDER=
